<svg width="130" height="76" viewBox="0 0 130 76" fill="none" xmlns="http://www.w3.org/2000/svg">
<rect width="130" height="80" transform="translate(0 -4)" fill="white"/>
<path d="M28.8214 29C28.7467 29 28.6767 28.972 28.6114 28.916C28.5554 28.8507 28.5274 28.7807 28.5274 28.706C28.5274 28.6593 28.532 28.6173 28.5414 28.58L31.8314 19.592C31.8594 19.4893 31.9154 19.4007 31.9994 19.326C32.0927 19.242 32.2187 19.2 32.3774 19.2H34.4494C34.608 19.2 34.7294 19.242 34.8134 19.326C34.9067 19.4007 34.9674 19.4893 34.9954 19.592L38.2714 28.58C38.29 28.6173 38.2994 28.6593 38.2994 28.706C38.2994 28.7807 38.2667 28.8507 38.2014 28.916C38.1454 28.972 38.0754 29 37.9914 29H36.2694C36.1294 29 36.022 28.9673 35.9474 28.902C35.882 28.8273 35.84 28.762 35.8214 28.706L35.2754 27.278H31.5374L31.0054 28.706C30.9867 28.762 30.9447 28.8273 30.8794 28.902C30.814 28.9673 30.702 29 30.5434 29H28.8214ZM32.1114 25.262H34.7154L33.3994 21.566L32.1114 25.262ZM41.7529 29C41.6502 29 41.5662 28.9673 41.5009 28.902C41.4355 28.8367 41.4029 28.7527 41.4029 28.65V19.55C41.4029 19.4473 41.4355 19.3633 41.5009 19.298C41.5662 19.2327 41.6502 19.2 41.7529 19.2H45.5609C46.7649 19.2 47.7122 19.48 48.4029 20.04C49.1029 20.5907 49.4529 21.3747 49.4529 22.392C49.4529 23.0547 49.2895 23.6147 48.9629 24.072C48.6455 24.5293 48.2255 24.8747 47.7029 25.108L49.6349 28.552C49.6629 28.608 49.6769 28.6593 49.6769 28.706C49.6769 28.7807 49.6442 28.8507 49.5789 28.916C49.5229 28.972 49.4529 29 49.3689 29H47.5209C47.3435 29 47.2129 28.958 47.1289 28.874C47.0449 28.7807 46.9842 28.6967 46.9469 28.622L45.3509 25.542H43.9089V28.65C43.9089 28.7527 43.8762 28.8367 43.8109 28.902C43.7455 28.9673 43.6615 29 43.5589 29H41.7529ZM43.9089 23.568H45.5329C45.9715 23.568 46.2982 23.4607 46.5129 23.246C46.7369 23.0313 46.8489 22.7373 46.8489 22.364C46.8489 22 46.7415 21.706 46.5269 21.482C46.3215 21.258 45.9902 21.146 45.5329 21.146H43.9089V23.568ZM55.4928 29C55.3902 29 55.3062 28.9673 55.2408 28.902C55.1755 28.8367 55.1428 28.7527 55.1428 28.65V21.398H52.6508C52.5482 21.398 52.4642 21.3653 52.3988 21.3C52.3335 21.2253 52.3008 21.1413 52.3008 21.048V19.55C52.3008 19.4473 52.3335 19.3633 52.3988 19.298C52.4642 19.2327 52.5482 19.2 52.6508 19.2H60.1828C60.2855 19.2 60.3695 19.2327 60.4348 19.298C60.5002 19.3633 60.5328 19.4473 60.5328 19.55V21.048C60.5328 21.1413 60.5002 21.2253 60.4348 21.3C60.3695 21.3653 60.2855 21.398 60.1828 21.398H57.6908V28.65C57.6908 28.7527 57.6582 28.8367 57.5928 28.902C57.5275 28.9673 57.4435 29 57.3408 29H55.4928ZM64.1552 29C64.0525 29 63.9685 28.9673 63.9032 28.902C63.8379 28.8367 63.8052 28.7527 63.8052 28.65V19.55C63.8052 19.4473 63.8379 19.3633 63.9032 19.298C63.9685 19.2327 64.0525 19.2 64.1552 19.2H66.0312C66.1339 19.2 66.2179 19.2327 66.2832 19.298C66.3485 19.3633 66.3812 19.4473 66.3812 19.55V28.65C66.3812 28.7527 66.3485 28.8367 66.2832 28.902C66.2179 28.9673 66.1339 29 66.0312 29H64.1552ZM73.9983 29.14C73.0649 29.14 72.2903 29.0093 71.6743 28.748C71.0583 28.4773 70.5916 28.1273 70.2743 27.698C69.9569 27.2687 69.7889 26.8113 69.7703 26.326C69.7703 26.2513 69.7983 26.186 69.8543 26.13C69.9196 26.0647 69.9943 26.032 70.0783 26.032H71.8423C71.9729 26.032 72.0709 26.0553 72.1363 26.102C72.2109 26.1487 72.2763 26.2093 72.3323 26.284C72.4069 26.424 72.5096 26.5593 72.6403 26.69C72.7803 26.8207 72.9576 26.928 73.1723 27.012C73.3963 27.0867 73.6716 27.124 73.9983 27.124C74.5396 27.124 74.9456 27.04 75.2163 26.872C75.4963 26.704 75.6363 26.4753 75.6363 26.186C75.6363 25.9807 75.5616 25.8127 75.4123 25.682C75.2629 25.542 75.0203 25.4207 74.6843 25.318C74.3576 25.206 73.9189 25.094 73.3683 24.982C72.6589 24.8327 72.0523 24.6413 71.5483 24.408C71.0536 24.1653 70.6756 23.8527 70.4143 23.47C70.1529 23.078 70.0223 22.5927 70.0223 22.014C70.0223 21.4447 70.1809 20.936 70.4983 20.488C70.8249 20.04 71.2776 19.69 71.8563 19.438C72.4349 19.186 73.1209 19.06 73.9143 19.06C74.5583 19.06 75.1229 19.144 75.6083 19.312C76.1029 19.48 76.5183 19.704 76.8543 19.984C77.1903 20.264 77.4423 20.5627 77.6103 20.88C77.7876 21.188 77.8809 21.4913 77.8903 21.79C77.8903 21.8647 77.8623 21.9347 77.8063 22C77.7503 22.056 77.6803 22.084 77.5963 22.084H75.7483C75.6456 22.084 75.5569 22.0653 75.4823 22.028C75.4076 21.9907 75.3423 21.93 75.2863 21.846C75.2303 21.6407 75.0809 21.4633 74.8383 21.314C74.6049 21.1553 74.2969 21.076 73.9143 21.076C73.5036 21.076 73.1816 21.1507 72.9483 21.3C72.7243 21.44 72.6123 21.6593 72.6123 21.958C72.6123 22.1447 72.6729 22.308 72.7943 22.448C72.9249 22.588 73.1349 22.7093 73.4243 22.812C73.7229 22.9147 74.1289 23.022 74.6423 23.134C75.4916 23.2927 76.1776 23.4933 76.7003 23.736C77.2229 23.9693 77.6056 24.2773 77.8483 24.66C78.0909 25.0333 78.2123 25.5047 78.2123 26.074C78.2123 26.7087 78.0303 27.2593 77.6663 27.726C77.3116 28.1833 76.8169 28.5333 76.1823 28.776C75.5476 29.0187 74.8196 29.14 73.9983 29.14ZM84.0241 29C83.9214 29 83.8374 28.9673 83.7721 28.902C83.7068 28.8367 83.6741 28.7527 83.6741 28.65V21.398H81.1821C81.0794 21.398 80.9954 21.3653 80.9301 21.3C80.8648 21.2253 80.8321 21.1413 80.8321 21.048V19.55C80.8321 19.4473 80.8648 19.3633 80.9301 19.298C80.9954 19.2327 81.0794 19.2 81.1821 19.2H88.7141C88.8168 19.2 88.9008 19.2327 88.9661 19.298C89.0314 19.3633 89.0641 19.4473 89.0641 19.55V21.048C89.0641 21.1413 89.0314 21.2253 88.9661 21.3C88.9008 21.3653 88.8168 21.398 88.7141 21.398H86.2221V28.65C86.2221 28.7527 86.1894 28.8367 86.1241 28.902C86.0588 28.9673 85.9748 29 85.8721 29H84.0241ZM95.9631 29.14C95.0298 29.14 94.2551 29.0093 93.6391 28.748C93.0231 28.4773 92.5564 28.1273 92.2391 27.698C91.9218 27.2687 91.7538 26.8113 91.7351 26.326C91.7351 26.2513 91.7631 26.186 91.8191 26.13C91.8844 26.0647 91.9591 26.032 92.0431 26.032H93.8071C93.9378 26.032 94.0358 26.0553 94.1011 26.102C94.1758 26.1487 94.2411 26.2093 94.2971 26.284C94.3718 26.424 94.4744 26.5593 94.6051 26.69C94.7451 26.8207 94.9224 26.928 95.1371 27.012C95.3611 27.0867 95.6364 27.124 95.9631 27.124C96.5044 27.124 96.9104 27.04 97.1811 26.872C97.4611 26.704 97.6011 26.4753 97.6011 26.186C97.6011 25.9807 97.5264 25.8127 97.3771 25.682C97.2278 25.542 96.9851 25.4207 96.6491 25.318C96.3224 25.206 95.8838 25.094 95.3331 24.982C94.6238 24.8327 94.0171 24.6413 93.5131 24.408C93.0184 24.1653 92.6404 23.8527 92.3791 23.47C92.1178 23.078 91.9871 22.5927 91.9871 22.014C91.9871 21.4447 92.1458 20.936 92.4631 20.488C92.7898 20.04 93.2424 19.69 93.8211 19.438C94.3998 19.186 95.0858 19.06 95.8791 19.06C96.5231 19.06 97.0878 19.144 97.5731 19.312C98.0678 19.48 98.4831 19.704 98.8191 19.984C99.1551 20.264 99.4071 20.5627 99.5751 20.88C99.7524 21.188 99.8458 21.4913 99.8551 21.79C99.8551 21.8647 99.8271 21.9347 99.7711 22C99.7151 22.056 99.6451 22.084 99.5611 22.084H97.7131C97.6104 22.084 97.5218 22.0653 97.4471 22.028C97.3724 21.9907 97.3071 21.93 97.2511 21.846C97.1951 21.6407 97.0458 21.4633 96.8031 21.314C96.5698 21.1553 96.2618 21.076 95.8791 21.076C95.4684 21.076 95.1464 21.1507 94.9131 21.3C94.6891 21.44 94.5771 21.6593 94.5771 21.958C94.5771 22.1447 94.6378 22.308 94.7591 22.448C94.8898 22.588 95.0998 22.7093 95.3891 22.812C95.6878 22.9147 96.0938 23.022 96.6071 23.134C97.4564 23.2927 98.1424 23.4933 98.6651 23.736C99.1878 23.9693 99.5704 24.2773 99.8131 24.66C100.056 25.0333 100.177 25.5047 100.177 26.074C100.177 26.7087 99.9951 27.2593 99.6311 27.726C99.2764 28.1833 98.7818 28.5333 98.1471 28.776C97.5124 29.0187 96.7844 29.14 95.9631 29.14ZM36.8014 49.14C35.9147 49.14 35.1494 48.9953 34.5054 48.706C33.8707 48.4073 33.3761 47.978 33.0214 47.418C32.6761 46.8487 32.4847 46.158 32.4474 45.346C32.4381 44.9447 32.4334 44.52 32.4334 44.072C32.4334 43.6147 32.4381 43.1807 32.4474 42.77C32.4847 41.9767 32.6807 41.3047 33.0354 40.754C33.3901 40.2033 33.8894 39.7833 34.5334 39.494C35.1774 39.2047 35.9334 39.06 36.8014 39.06C37.5014 39.06 38.1221 39.1487 38.6634 39.326C39.2047 39.494 39.6574 39.7227 40.0214 40.012C40.3947 40.3013 40.6747 40.6187 40.8614 40.964C41.0574 41.3093 41.1601 41.65 41.1694 41.986C41.1787 42.07 41.1507 42.14 41.0854 42.196C41.0294 42.252 40.9594 42.28 40.8754 42.28H38.8314C38.7287 42.28 38.6494 42.266 38.5934 42.238C38.5467 42.2007 38.5047 42.1493 38.4674 42.084C38.4021 41.944 38.3041 41.7993 38.1734 41.65C38.0521 41.4913 37.8794 41.356 37.6554 41.244C37.4407 41.132 37.1561 41.076 36.8014 41.076C36.2694 41.076 35.8494 41.216 35.5414 41.496C35.2427 41.776 35.0794 42.224 35.0514 42.84C35.0234 43.6427 35.0234 44.4547 35.0514 45.276C35.0794 45.9293 35.2521 46.4007 35.5694 46.69C35.8867 46.9793 36.3067 47.124 36.8294 47.124C37.1841 47.124 37.4967 47.0633 37.7674 46.942C38.0474 46.8207 38.2667 46.634 38.4254 46.382C38.5841 46.1207 38.6634 45.7893 38.6634 45.388V45.122H37.3474C37.2447 45.122 37.1561 45.0893 37.0814 45.024C37.0161 44.9493 36.9834 44.8607 36.9834 44.758V43.722C36.9834 43.6193 37.0161 43.5353 37.0814 43.47C37.1561 43.3953 37.2447 43.358 37.3474 43.358H40.8754C40.9781 43.358 41.0621 43.3953 41.1274 43.47C41.1927 43.5353 41.2254 43.6193 41.2254 43.722V45.318C41.2254 46.1207 41.0434 46.8067 40.6794 47.376C40.3154 47.9453 39.7974 48.384 39.1254 48.692C38.4627 48.9907 37.6881 49.14 36.8014 49.14ZM44.0528 49C43.9781 49 43.9081 48.972 43.8428 48.916C43.7868 48.8507 43.7588 48.7807 43.7588 48.706C43.7588 48.6593 43.7635 48.6173 43.7728 48.58L47.0628 39.592C47.0908 39.4893 47.1468 39.4007 47.2308 39.326C47.3241 39.242 47.4501 39.2 47.6088 39.2H49.6808C49.8395 39.2 49.9608 39.242 50.0448 39.326C50.1381 39.4007 50.1988 39.4893 50.2268 39.592L53.5028 48.58C53.5215 48.6173 53.5308 48.6593 53.5308 48.706C53.5308 48.7807 53.4981 48.8507 53.4328 48.916C53.3768 48.972 53.3068 49 53.2228 49H51.5008C51.3608 49 51.2535 48.9673 51.1788 48.902C51.1135 48.8273 51.0715 48.762 51.0528 48.706L50.5068 47.278H46.7688L46.2368 48.706C46.2181 48.762 46.1761 48.8273 46.1108 48.902C46.0455 48.9673 45.9335 49 45.7748 49H44.0528ZM47.3428 45.262H49.9468L48.6308 41.566L47.3428 45.262ZM56.9843 49C56.8816 49 56.7976 48.9673 56.7323 48.902C56.667 48.8367 56.6343 48.7527 56.6343 48.65V39.55C56.6343 39.4473 56.667 39.3633 56.7323 39.298C56.7976 39.2327 56.8816 39.2 56.9843 39.2H58.8323C58.9256 39.2 59.005 39.2327 59.0703 39.298C59.145 39.3633 59.1823 39.4473 59.1823 39.55V46.886H63.4103C63.513 46.886 63.597 46.9233 63.6623 46.998C63.737 47.0633 63.7743 47.1473 63.7743 47.25V48.65C63.7743 48.7527 63.737 48.8367 63.6623 48.902C63.597 48.9673 63.513 49 63.4103 49H56.9843ZM66.4278 49C66.3531 49 66.2831 48.972 66.2178 48.916C66.1618 48.8507 66.1338 48.7807 66.1338 48.706C66.1338 48.6593 66.1385 48.6173 66.1478 48.58L69.4378 39.592C69.4658 39.4893 69.5218 39.4007 69.6058 39.326C69.6991 39.242 69.8251 39.2 69.9838 39.2H72.0558C72.2145 39.2 72.3358 39.242 72.4198 39.326C72.5131 39.4007 72.5738 39.4893 72.6018 39.592L75.8778 48.58C75.8965 48.6173 75.9058 48.6593 75.9058 48.706C75.9058 48.7807 75.8731 48.8507 75.8078 48.916C75.7518 48.972 75.6818 49 75.5978 49H73.8758C73.7358 49 73.6285 48.9673 73.5538 48.902C73.4885 48.8273 73.4465 48.762 73.4278 48.706L72.8818 47.278H69.1438L68.6118 48.706C68.5931 48.762 68.5511 48.8273 68.4858 48.902C68.4205 48.9673 68.3085 49 68.1498 49H66.4278ZM69.7178 45.262H72.3218L71.0058 41.566L69.7178 45.262ZM78.4913 49C78.4073 49 78.3326 48.972 78.2673 48.916C78.2113 48.8507 78.1833 48.7807 78.1833 48.706C78.1833 48.678 78.188 48.65 78.1973 48.622C78.2066 48.594 78.2206 48.566 78.2393 48.538L81.2913 44.002L78.4633 39.662C78.4353 39.606 78.4213 39.55 78.4213 39.494C78.4213 39.4193 78.4493 39.354 78.5053 39.298C78.5613 39.2327 78.6313 39.2 78.7153 39.2H80.7453C80.8853 39.2 80.9926 39.2373 81.0673 39.312C81.142 39.3773 81.1933 39.438 81.2213 39.494L82.9013 42.042L84.5953 39.494C84.6326 39.438 84.6886 39.3773 84.7633 39.312C84.838 39.2373 84.9453 39.2 85.0853 39.2H87.0033C87.0873 39.2 87.1573 39.2327 87.2133 39.298C87.2786 39.354 87.3113 39.4193 87.3113 39.494C87.3113 39.5593 87.2926 39.6153 87.2553 39.662L84.4133 43.988L87.4933 48.538C87.512 48.566 87.5213 48.594 87.5213 48.622C87.5306 48.65 87.5353 48.678 87.5353 48.706C87.5353 48.7807 87.5073 48.8507 87.4513 48.916C87.3953 48.972 87.3253 49 87.2413 49H85.1553C85.0153 49 84.9033 48.9673 84.8193 48.902C84.7446 48.8273 84.6933 48.7667 84.6653 48.72L82.8033 46.032L80.9833 48.72C80.9553 48.7667 80.904 48.8273 80.8293 48.902C80.7546 48.9673 80.6473 49 80.5073 49H78.4913ZM93.5453 49C93.452 49 93.368 48.9673 93.2933 48.902C93.228 48.8367 93.1953 48.7527 93.1953 48.65V45.64L89.9473 39.648C89.938 39.62 89.9286 39.5967 89.9193 39.578C89.91 39.55 89.9053 39.522 89.9053 39.494C89.9053 39.4193 89.9333 39.354 89.9893 39.298C90.0546 39.2327 90.1293 39.2 90.2133 39.2H91.9633C92.1033 39.2 92.2106 39.2373 92.2853 39.312C92.3693 39.3773 92.4206 39.438 92.4393 39.494L94.4553 43.106L96.4713 39.494C96.4993 39.438 96.5506 39.3773 96.6253 39.312C96.7093 39.2373 96.8213 39.2 96.9613 39.2H98.7113C98.7953 39.2 98.8653 39.2327 98.9213 39.298C98.9773 39.354 99.0053 39.4193 99.0053 39.494C99.0053 39.522 99.0006 39.55 98.9913 39.578C98.9913 39.5967 98.9866 39.62 98.9773 39.648L95.7153 45.64V48.65C95.7153 48.7527 95.6826 48.8367 95.6173 48.902C95.552 48.9673 95.468 49 95.3653 49H93.5453Z" fill="black"/>
<path d="M30.7161 56C33.1161 56 60.7161 60 83.2161 57C91.7161 56.1667 114.716 53.5 115.216 43.5C115.726 33.2912 93.2161 31 80.2161 31.5C66.2161 31.5 37.4 35.9 23 39.5C8.6 43.1 19.3827 23.6667 27.2161 15" stroke="black"/>
<path d="M27.5 9L28.9593 12.4549H33.6819L29.8613 14.5902L31.3206 18.0451L27.5 15.9098L23.6794 18.0451L25.1387 14.5902L21.3181 12.4549H26.0407L27.5 9Z" fill="#6E38F7"/>
</svg>
